<?xml version="1.0" encoding="UTF-8" standalone="no"?>
<svg
   xmlns:dc="http://purl.org/dc/elements/1.1/"
   xmlns:cc="http://creativecommons.org/ns#"
   xmlns:rdf="http://www.w3.org/1999/02/22-rdf-syntax-ns#"
   xmlns:svg="http://www.w3.org/2000/svg"
   xmlns="http://www.w3.org/2000/svg"
   xmlns:sodipodi="http://sodipodi.sourceforge.net/DTD/sodipodi-0.dtd"
   xmlns:inkscape="http://www.inkscape.org/namespaces/inkscape"
   height="128"
   width="128"
   version="1.1"
   id="svg26"
   sodipodi:docname="icon.svg"
   inkscape:version="0.92.5 (2060ec1f9f, 2020-04-08)">
  <metadata
     id="metadata32">
    <rdf:RDF>
      <cc:Work
         rdf:about="">
        <dc:format>image/svg+xml</dc:format>
        <dc:type
           rdf:resource="http://purl.org/dc/dcmitype/StillImage" />
      </cc:Work>
    </rdf:RDF>
  </metadata>
  <defs
     id="defs30" />
  <sodipodi:namedview
     pagecolor="#ffffff"
     bordercolor="#666666"
     borderopacity="1"
     objecttolerance="10"
     gridtolerance="10"
     guidetolerance="10"
     inkscape:pageopacity="0"
     inkscape:pageshadow="2"
     inkscape:window-width="3768"
     inkscape:window-height="2096"
     id="namedview28"
     showgrid="false"
     inkscape:zoom="14.94"
     inkscape:cx="82.905044"
     inkscape:cy="69.138109"
     inkscape:window-x="72"
     inkscape:window-y="27"
     inkscape:window-maximized="1"
     inkscape:current-layer="svg26" />
  <g
     transform="translate(32 32)"
     id="g6">
    <path
       d="M 31.163121,-32 C 22.303121,-32 -32,68.747021 -32,77.607021 V 79.97 c 0,8.86 7.13,15.99 16,15.99 h 96 c 8.86,0 15.578388,-7.140037 16,-15.99 l 0.118203,-2.481182 C 96.539339,68.648844 41.696879,-32 32.836879,-32 Z"
       id="path2"
       inkscape:connector-curvature="0"
       style="fill:#363d52"
       sodipodi:nodetypes="sssssssss" />
    <path
       d="m-16-32c-8.86 0-16 7.13-16 15.99v95.98c0 8.86 7.13 15.99 16 15.99h96c8.86 0 16-7.13 16-15.99v-95.98c0-8.85-7.14-15.99-16-15.99zm0 4h96c6.64 0 12 5.35 12 11.99v95.98c0 6.64-5.35 11.99-12 11.99h-96c-6.64 0-12-5.35-12-11.99v-95.98c0-6.64 5.36-11.99 12-11.99z"
       fill-opacity=".4"
       id="path4" />
  </g>
  <g
     transform="matrix(0.10073078,0,0,0.10073078,12.425923,2.256365)"
     id="g24"
     style="stroke-width:9.92745972">
    <path
       d="m 0,0 c 0,0 -0.325,1.994 -0.515,1.976 l -36.182,-3.491 c -2.879,-0.278 -5.115,-2.574 -5.317,-5.459 l -0.994,-14.247 -27.992,-1.997 -1.904,12.912 c -0.424,2.872 -2.932,5.037 -5.835,5.037 h -38.188 c -2.902,0 -5.41,-2.165 -5.834,-5.037 l -1.905,-12.912 -27.992,1.997 -0.994,14.247 c -0.202,2.886 -2.438,5.182 -5.317,5.46 l -36.2,3.49 c -0.187,0.018 -0.324,-1.978 -0.511,-1.978 l -0.049,-7.83 30.658,-4.944 1.004,-14.374 c 0.203,-2.91 2.551,-5.263 5.463,-5.472 l 38.551,-2.75 c 0.146,-0.01 0.29,-0.016 0.434,-0.016 2.897,0 5.401,2.166 5.825,5.038 l 1.959,13.286 h 28.005 l 1.959,-13.286 c 0.423,-2.871 2.93,-5.037 5.831,-5.037 0.142,0 0.284,0.005 0.423,0.015 l 38.556,2.75 c 2.911,0.209 5.26,2.562 5.463,5.472 l 1.003,14.374 30.645,4.966 z"
       transform="matrix(4.162611,0,0,-4.162611,919.24059,771.67186)"
       id="path8"
       inkscape:connector-curvature="0"
       style="fill:#ffffff" />
    <path
       d="m 592.28125,-56.037109 c -1.76042,0.688151 -3.52083,1.376302 -5.28125,2.064453 3.57357,-1.21875 7.14714,-2.4375 10.7207,-3.65625 z m 96.78283,33.902377 c -16.30138,1.133639 -23.08853,-1.030961 -39.24063,1.374264 -17.05682,2.779553 -44.74612,-5.780804 -60.97755,0.301111 -7.91815,2.775178 -45.04249,-3.655046 -47.29092,4.891808 -2.75986,8.139983 14.12892,13.8503812 17.45985,21.1184815 14.77127,30.9598265 46.24943,67.6536395 61.49103,98.3846175 11.70946,21.17128 33.28826,34.45569 47.65392,53.54922 12.07387,16.0475 21.47392,33.94231 32.14713,50.95357 36.00108,57.37952 68.59131,102.47339 107.57248,172.40805 12.3062,22.07808 33.8571,53.56451 43.74491,76.82639 19.00681,22.38036 22.75667,51.04889 37.7175,74.5323 7.42992,11.66245 20.8552,19.27468 25.63086,32.61914 16.19689,39.75437 41.6935,76.50858 58.69584,115.92845 17.57712,36.61676 37.2926,72.75903 55.8454,108.88712 5.8641,10.71518 4.5448,21.26702 15.1487,26.7186 9.8191,4.58012 15.8606,24.19718 18.8912,34.50888 5.3763,17.74073 14.6632,23.62743 16.8568,41.85785 1.212,13.04506 17.2348,24.67586 20.8499,37.24279 6.5573,20.5326 10.5636,36.56159 23.7985,53.60163 14.0259,17.47056 2.5446,56.37996 23.3536,64.47726 11.1312,3.5905 3.876,-13.7489 11.1421,-22.7209 13.3767,-13.8211 -0.7486,-36.01909 -1.7447,-54.97704 -0.7823,-22.56896 -0.8254,-61.49674 -6.7708,-83.04011 -9.2732,-32.14892 1.0245,-58.35196 -6.5434,-90.95556 -5.8882,-29.81649 6.4366,-72.02986 -2.6044,-101.15857 -8.7143,-29.58348 10.9809,-52.89561 6.855,-83.61029 -2.9528,-20.72625 -0.8054,-32.32822 -0.2867,-53.26289 1.0145,-28.27326 1.3785,-56.31111 1.7223,-84.4723 0.9785,-80.16283 -9.6658,-155.66034 0.9686,-240.50445 2.8089,-46.01518 11.8384,-102.20216 -2.0571,-146.30656 -7.1216,-22.5523 13.5507,-85.3386206 -2.7057,-102.700032 -18.0782,-19.36673 -62.2408,-6.544334 -95.9621,-8.45894 -18.6425,-1.05847 -40.2617,4.45182 -58.7407,2.308034 -59.04669,-5.391562 -117.94657,3.858447 -177.21865,2.305115 L 710.7955,-22.224576 c -4.11773,-0.107913 -17.61599,-0.08257 -21.73142,0.08984 z m -154.56213,0.890591 -0.65429,-0.658203 z"
       id="path10"
       inkscape:connector-curvature="0"
       style="fill:#478cbf;stroke-width:46.98028564"
       sodipodi:nodetypes="csscssssssaassasscscsssssssszccacssssssscsc" />
    <path
       d="m 15.222829,-54.689423 -8.7324144,-3.659213 c -0.135,-1.936 -9.0045104,4.416318 -10.9405104,4.277318 l -10.6464802,9.652787 c -0.094,-0.007 -6.389893,9.856649 -16.349542,-1.419521 -1.268389,-1.436052 -12.308031,-10.997787 -12.591031,-9.073787 l -10.386223,0.898788 -10.598086,1.691425 -12.923361,5.303106 c -0.297,-2.018 -12.813362,1.887181 -14.845362,2.036181 l -16.848369,3.032904 c -1.936,0.139 -17.85312,-1.420947 -17.98812,0.515053 l -6.19528,-4.234105 -4.92038,-13.776255 c 0.015,-3.498 -7.63315,-3.24868 -9.24284,-12.885372 -4.20163,-25.153773 36.8393,-16.503682 49.011565,-3.162279 l 22.61834,-3.100946 34.177413,-1.127617 c 13.863693,-7.985223 69.293671,-15.706988 69.293671,18.667012 0,0.777 -7.28251,4.874904 -7.26651,8.374904 z"
       transform="matrix(4.162611,0,0,-4.162611,784.07144,817.24284)"
       id="path12"
       inkscape:connector-curvature="0"
       style="fill:#478cbf"
       sodipodi:nodetypes="ccccscccccccccscccscc" />
    <path
       d="m -3.1009467,-111.35218 c 0,-7.994 -8.7342343,-10.24443 -16.7342343,-10.24443 -7.996,0 -14.479,6.479 -14.479,14.473 0,7.993998 6.483,14.478998 14.479,14.478998 8,0 14.4790004,-6.485 14.4790004,-14.478998"
       transform="matrix(4.162611,0,0,-4.162611,367.36686,631.05679)"
       id="path16"
       inkscape:connector-curvature="0"
       style="fill:#414042"
       sodipodi:nodetypes="csssc" />
    <path
       d="m -181.82824,58.636083 c 0,-12.052 -3.32827,-167.828613 0.95409,-156.565229 6.96672,18.323776 133.723984,253.046366 147.537292,253.258386 12.042581,0.18484 -71.504032,-0.18653 -83.545032,-0.18653 -12.05,0 -66.35587,1.51817 -66.35587,-10.52583"
       transform="matrix(4.162611,0,0,-4.162611,634.78706,625.67104)"
       id="path20"
       inkscape:connector-curvature="0"
       style="fill:#ffffff"
       sodipodi:nodetypes="csssc" />
    <path
       d="m -4.7923721,-112.19789 c 0,-7.994 9.2960424,-13.62729 17.2900421,-13.62729 8.002,0 14.479,6.479 14.479,14.473 0,7.994 -6.477,14.479004 -14.479,14.479004 -7.9939997,0 -14.4709997,-6.485004 -14.4709997,-14.479004"
       transform="matrix(4.162611,0,0,-4.162611,656.64056,631.05679)"
       id="path22"
       inkscape:connector-curvature="0"
       style="fill:#414042"
       sodipodi:nodetypes="csssc" />
  </g>
  <path
     style="fill:#000000;stroke-width:0.125"
     d="M 9.40625 -0.40820312 C 8.483724 -0.41210937 7.5611979 -0.41601563 6.6386719 -0.41992188 C 4.7376302 1.3079427 2.8365885 3.0358073 0.93554688 4.7636719 C 0.21809896 6.234375 -0.49934896 7.7050781 -1.2167969 9.1757812 C 2.40625 5.985026 6.0292969 2.7942708 9.6523438 -0.39648438 C 9.5894368 -0.46569083 9.4784713 -0.43790634 9.40625 -0.40820312 z M 12.939453 0.49804688 C 10.452474 2.2740885 7.9654948 4.0501302 5.4785156 5.8261719 C 3.9967448 7.2760417 2.514974 8.7259115 1.0332031 10.175781 C 0.24023437 11.287109 -0.55273437 12.398437 -1.3457031 13.509766 C -2.0273437 15.402344 -2.7089844 17.294922 -3.390625 19.1875 C -2.2708333 17.291667 -1.1510417 15.395833 -0.03125 13.5 C 1.3066406 12.05599 2.6445313 10.611979 3.9824219 9.1679688 C 8.5481771 6.1575521 13.113932 3.1471354 17.679688 0.13671875 C 16.584635 0.056640625 15.489583 -0.0234375 14.394531 -0.10351562 C 13.909505 0.097005208 13.424479 0.29752604 12.939453 0.49804688 z M 4.0605469 -0.076171875 C 3.109375 0.17447917 2.1582031 0.42513021 1.2070312 0.67578125 C 0.73697917 1.6842448 0.26692708 2.6927083 -0.203125 3.7011719 C -0.12882227 3.9244116 0.25032205 3.8407447 0.25390625 3.6171875 C 1.5403646 2.3808594 2.8268229 1.1445312 4.1132812 -0.091796875 L 4.0605469 -0.076171875 z M 44.597656 0.4453125 L 44.599609 0.546875 C 44.667036 0.55634001 44.685397 0.35565785 44.597656 0.4453125 z M 44.667969 0.63867188 C 45.139323 1.688151 45.610677 2.7376302 46.082031 3.7871094 C 46.431641 5.5572917 46.78125 7.327474 47.130859 9.0976562 C 48.257161 11.408203 49.383464 13.71875 50.509766 16.029297 C 50.159384 14.522411 49.798983 13.017282 49.478938 11.50375 C 49.181922 9.8742447 48.884906 8.2447395 48.587891 6.6152344 C 48.264323 5.5097656 47.940755 4.4042969 47.617188 3.2988281 C 46.70638 2.4316406 45.795573 1.5644531 44.884766 0.69726562 C 44.798267 0.71776322 44.756274 0.57249186 44.667969 0.63867188 z M 50.503906 1.5371094 C 50.572266 3.9440104 50.640625 6.3509115 50.708984 8.7578125 C 50.948308 9.7063886 51.053971 10.694983 51.433594 11.603516 C 51.641276 11.86263 51.848958 12.121745 52.056641 12.380859 C 52.691406 11.794271 53.326172 11.207682 53.960938 10.621094 C 53.667969 8.3639323 53.375 6.1067708 53.082031 3.8496094 C 52.238932 3.0755208 51.395833 2.3014323 50.552734 1.5273438 L 50.503906 1.5371094 z M 57.472656 2.3710938 C 56.597005 2.375 55.721354 2.3789063 54.845703 2.3828125 C 55.013672 4.3352865 55.181641 6.2877604 55.349609 8.2402344 C 56.248698 7.1738281 57.147786 6.1074219 58.046875 5.0410156 C 57.929687 4.1673177 57.8125 3.2936198 57.695312 2.4199219 L 57.572266 2.3613281 L 57.472656 2.3710938 z M 28.439453 6.2792969 C 26.967677 6.5183788 25.539454 6.9548639 24.103404 7.3460879 C 22.703676 7.732954 21.312507 8.148543 19.929158 8.5903726 C 18.68601 8.9967493 17.456929 9.4473712 16.237322 9.9194782 C 14.897786 10.462489 13.559925 11.021222 12.301783 11.737538 C 10.778488 12.5846 9.3678324 13.631792 8.1013751 14.828628 C 6.2970176 16.509594 4.9792927 18.657178 4.0714796 20.937581 C 3.5709892 22.114455 3.168101 23.32943 2.7658302 24.542285 C 2.3244822 25.999196 1.93413 27.479749 1.7539062 28.994141 C 1.5403247 30.93715 1.5940725 32.894665 1.5898438 34.845703 C 1.8002807 42.185341 2.1378888 49.52042 2.4290318 56.857105 C 2.6291202 61.776481 2.8292085 66.695858 3.0292969 71.615234 C 2.0481771 65.495443 1.0670573 59.375651 0.0859375 53.255859 C 0.26888021 55.88151 0.45182292 58.507161 0.63476562 61.132812 C -0.54427083 57.837891 -1.7233073 54.542969 -2.9023438 51.248047 C -2.921224 52.366536 -2.9401042 53.485026 -2.9589844 54.603516 C -1.4648438 59.554036 0.029296875 64.504557 1.5234375 69.455078 C 1.6979167 72.86849 1.8723958 76.281901 2.046875 79.695312 C 2.4511719 77.008464 2.8554688 74.321615 3.2597656 71.634766 C 3.0807292 73.94987 2.9016927 76.264974 2.7226562 78.580078 C 3.266276 79.374349 3.8098958 80.16862 4.3535156 80.962891 C 7.7109375 77.529948 11.068359 74.097005 14.425781 70.664062 C 11.18099 75.620443 7.9361979 80.576823 4.6914062 85.533203 L 4.6777344 85.574219 C 8.0507812 82.58138 11.423828 79.588542 14.796875 76.595703 C 15.236328 76.498047 15.675781 76.400391 16.115234 76.302734 C 16.371094 75.801432 16.626953 75.30013 16.882812 74.798828 C 17.177083 74.705078 17.471354 74.611328 17.765625 74.517578 C 17.740885 73.591146 17.716146 72.664714 17.691406 71.738281 C 19.453125 68.434896 21.214844 65.13151 22.976562 61.828125 C 23.176512 60.717891 23.40558 59.60621 23.818359 58.552734 C 24.619338 57.269291 25.549608 56.073293 26.409957 54.829965 C 27.559763 53.208909 28.709569 51.587853 29.859375 49.966797 C 31.969401 46.613281 34.079427 43.259766 36.189453 39.90625 C 37.366851 37.691938 38.580919 35.49535 39.645255 33.223301 C 40.575576 31.277937 41.419603 29.293373 42.247324 27.302659 C 42.709099 26.305603 43.040286 25.25835 43.3125 24.195312 C 43.556132 23.178868 43.706675 22.137586 43.677666 21.090254 C 43.649913 19.887979 43.465808 18.694766 43.234201 17.516766 C 42.83146 15.562297 42.299455 13.637909 41.742188 11.722656 C 41.471253 10.672991 40.971035 9.6173083 40.041016 9 C 39.076695 8.4284058 37.960015 8.2139225 36.900126 7.8862891 C 35.330382 7.4301261 33.728941 7.0948935 32.135039 6.7364289 C 30.915986 6.5018709 29.690096 6.2074303 28.439453 6.2792969 z M 36.404297 9.9570312 C 37.311624 10.015158 38.261398 10.268945 38.922909 10.927082 C 39.676683 11.737344 39.944905 12.845081 40.261944 13.873441 C 40.707731 15.357143 41.136143 16.845994 41.560547 18.335938 C 41.709432 19.28914 41.869321 20.286892 41.578125 21.230469 C 40.775277 23.325102 39.684158 25.290812 38.681641 27.292969 C 37.104901 30.331356 35.500806 33.355525 33.88574 36.373673 C 32.456829 39.033105 31.010305 41.683252 29.535451 44.31747 C 27.753779 47.451529 25.897532 50.542194 24.045839 53.635145 C 23.307903 54.861581 22.569967 56.088017 21.832031 57.314453 C 20.881939 59.080807 20.034917 60.900031 19.122623 62.68545 C 17.794973 65.146461 16.31596 67.520781 14.878955 69.918398 C 14.731153 70.162396 14.58335 70.406393 14.435547 70.650391 C 19.023438 61.615885 23.611328 52.58138 28.199219 43.546875 C 31.664062 37.434896 35.128906 31.322917 38.59375 25.210938 C 39.210937 23.88737 39.828125 22.563802 40.445312 21.240234 C 40.464844 20.086589 40.484375 18.932943 40.503906 17.779297 C 40.294922 16.627604 40.085938 15.475911 39.876953 14.324219 C 39.186849 13.596354 38.496745 12.86849 37.806641 12.140625 C 36.740885 11.857422 35.67513 11.574219 34.609375 11.291016 C 33.253906 11.259115 31.898438 11.227214 30.542969 11.195312 C 28.951172 11.334635 27.359375 11.473958 25.767578 11.613281 C 24.41862 11.827474 23.069661 12.041667 21.720703 12.255859 C 19.697266 12.929688 17.673828 13.603516 15.650391 14.277344 C 14.479818 14.808594 13.309245 15.339844 12.138672 15.871094 C 11.102865 16.729818 10.067057 17.588542 9.03125 18.447266 C 8.3919271 19.373047 7.7526042 20.298828 7.1132812 21.224609 C 6.436849 22.801432 5.7604167 24.378255 5.0839844 25.955078 C 4.8359375 27.057943 4.5878906 28.160807 4.3398438 29.263672 C 4.4587249 31.639823 4.5714539 34.017043 4.7836457 36.387109 C 4.9796739 38.81982 5.3861284 41.228598 5.7084509 43.646304 C 6.5075665 49.363443 7.351546 55.074181 8.1933594 60.785156 C 8.4360046 61.800446 8.5638099 62.988709 9.4412149 63.681055 C 10.026781 64.085447 10.85094 63.96689 11.406229 63.567916 C 12.201868 62.917551 12.666577 61.949291 13.21054 61.093508 C 16.812265 54.962935 20.393411 48.820247 23.98713 42.684961 C 26.894415 37.715755 29.8017 32.74655 32.708984 27.777344 C 33.544271 26.238932 34.379557 24.700521 35.214844 23.162109 C 35.580729 22.064453 35.946615 20.966797 36.3125 19.869141 C 36.447487 19.010309 36.296286 18.065656 35.742904 17.375086 C 35.136717 16.556886 34.052692 16.366405 33.09801 16.3206 C 31.536694 16.250679 29.972322 16.260966 28.410156 16.302734 C 26.581548 16.372923 24.765179 16.62084 22.95857 16.900475 C 21.594367 17.122885 20.245144 17.42867 18.901668 17.750888 C 17.807175 18.028939 16.7352 18.396455 15.713008 18.877766 C 14.732147 19.346038 13.804029 19.92476 12.945665 20.591509 C 12.000405 21.317492 11.176766 22.191955 10.456667 23.139379 C 9.8922828 23.919392 9.3777077 24.742078 9.0074021 25.633416 C 8.5298023 26.719072 8.2135825 27.870282 8 29.035156 C 7.8049702 30.219529 7.7825837 31.429386 7.9071269 32.62251 C 8.0012553 33.693983 8.1887535 34.754401 8.3531356 35.816555 C 8.7380273 37.970144 9.1689878 40.115255 9.6036172 42.259229 C 9.9633381 43.948871 10.310768 45.641764 10.706604 47.323261 C 10.962104 48.270921 11.286966 49.426927 12.283203 49.835938 C 13.255773 50.218374 14.286007 49.684046 14.871094 48.896484 C 15.514656 48.103372 16.117838 47.278516 16.728262 46.459837 C 17.717243 45.129085 18.684778 43.78232 19.632301 42.42188 C 20.931661 40.471148 22.23093 38.519749 23.451344 36.51818 C 25.128586 33.819967 26.741963 31.08283 28.360317 28.349142 C 29.127581 27.008152 29.894845 25.667162 30.662109 24.326172 C 31.085422 23.494057 31.385188 22.460582 30.927842 21.578818 C 30.546148 20.895158 29.75308 20.562811 29 20.521484 C 27.909976 20.553718 26.829809 20.747036 25.755627 20.925374 C 24.625979 21.133225 23.492923 21.324405 22.37674 21.598093 C 21.203822 21.857873 20.051869 22.213933 18.931109 22.645114 C 17.865034 23.059278 16.845329 23.595601 15.92905 24.282821 C 15.041471 24.921487 14.23256 25.662929 13.460208 26.435114 C 12.717087 27.227391 11.891077 27.995996 11.451819 29.009991 C 10.981464 30.00591 11.267467 31.129857 11.564733 32.13044 C 12.064427 33.770706 12.601374 35.399536 13.166253 37.018565 C 13.465015 37.874565 13.803653 38.774709 14.501567 39.390458 C 15.167825 39.994015 16.193222 40.019922 16.955078 39.583984 C 17.775214 39.13915 18.265775 38.310504 18.837891 37.607422 C 19.927661 36.124739 20.978594 34.613887 22.022681 33.09886 C 22.891988 31.80904 23.783956 30.533413 24.610393 29.215555 C 25.14172 28.368789 25.753247 27.309341 25.238425 26.308362 C 24.765475 25.183516 23.345802 25.039892 22.310547 25.359375 C 21.211939 25.637467 20.136116 25.998419 19.055461 26.338181 C 18.020527 26.740899 16.86959 26.911302 15.955078 27.574219 C 15.148645 28.15137 14.765567 29.178696 14.900787 30.148039 C 14.994875 30.926934 15.309816 31.685875 15.810547 32.291016 C 16.363399 32.905897 17.268974 33.271884 18.075948 32.979838 C 18.964817 32.705996 19.570696 31.953724 20.213186 31.328246 C 20.910143 30.59616 21.799206 29.789312 21.749949 28.690619 C 21.71381 27.802071 20.745967 27.202263 19.919922 27.494141 C 18.975805 27.736364 18.054465 28.344601 17.571311 29.197885 C 17.289391 29.674031 17.507454 30.549119 18.177734 30.460938 C 19.110427 30.268116 18.907548 28.925756 19.761719 28.634766 C 19.857995 28.612278 20.208467 28.527312 19.96356 28.786004 C 19.627215 29.584933 19.10892 30.323053 18.503906 30.939453 C 17.84165 31.495138 16.634325 31.42202 16.328125 30.507812 C 16.00226 29.738201 16.50063 28.926684 17.177079 28.552634 C 17.964354 28.002774 18.910911 27.771349 19.794922 27.427734 C 20.5981 27.138566 21.516313 26.870353 22.343932 27.2193 C 23.112559 27.54981 23.503873 28.461008 23.244141 29.253906 C 22.960578 30.242091 22.218362 31.001636 21.663748 31.842326 C 20.986234 32.758373 20.324576 33.686455 19.632812 34.591797 C 19.110103 35.248228 18.368828 35.823908 17.496969 35.843571 C 16.676189 35.885209 15.877675 35.39574 15.469527 34.694212 C 14.866034 33.744648 14.463208 32.690974 14.019531 31.662109 C 13.662845 30.797115 13.409432 29.797651 13.8125 28.900391 C 14.191183 28.046053 15.006598 27.508439 15.791331 27.064781 C 16.952737 26.411052 18.170879 25.866424 19.381238 25.311556 C 20.864354 24.657047 22.389544 24.106666 23.904297 23.53125 C 24.838414 23.242072 25.881428 22.858932 26.837891 23.277344 C 27.87451 23.720191 27.995878 25.087771 27.529297 25.990234 C 26.993177 27.136054 26.298686 28.197708 25.681839 29.300298 C 23.368837 33.279304 21.030796 37.243726 18.710938 41.21875 C 18.081797 42.137526 17.433357 43.042471 16.765625 43.933594 C 15.969831 44.698237 14.590595 44.726979 13.798828 43.939453 C 13.149652 43.322122 12.867341 42.447329 12.505859 41.652344 C 11.855005 40.083338 11.17945 38.523912 10.544013 36.948927 C 10.180032 35.960147 9.9010132 34.939253 9.6688871 33.913159 C 9.4847652 32.882152 9.4305336 31.829861 9.5019531 30.785156 C 9.7098175 29.535986 10.035871 28.298176 10.574219 27.148438 C 11.138529 26.034586 11.878311 25.012098 12.748123 24.117023 C 13.552819 23.296077 14.462364 22.576105 15.456741 21.997625 C 16.334715 21.478551 17.284214 21.095848 18.246542 20.76512 C 19.377813 20.39347 20.529769 20.087617 21.684343 19.79837 C 24.268594 19.207147 26.876718 18.729161 29.480981 18.236324 C 30.38756 18.087323 31.337405 17.823884 32.242409 18.125637 C 33.30563 18.406245 33.911022 19.659308 33.521116 20.678016 C 33.265942 21.56006 32.736234 22.323297 32.324219 23.134766 C 26.642027 33.198376 20.937453 43.249321 15.244141 53.306641 C 14.5625 54.201823 13.880859 55.097005 13.199219 55.992188 C 12.457596 56.354944 11.528958 56.189272 10.908203 55.662109 C 10.296585 55.081213 10.054315 54.235913 9.792933 53.459741 C 9.1045389 51.177796 8.4220565 48.894074 7.7363281 46.611328 C 7.2565104 44.196615 6.7766927 41.781901 6.296875 39.367188 C 6.1041667 37.736328 5.9114583 36.105469 5.71875 34.474609 C 5.7643229 32.941406 5.8098958 31.408203 5.8554688 29.875 C 6.3148894 28.313354 6.742527 26.736974 7.3879167 25.238742 C 7.9679073 23.875989 8.7617865 22.613238 9.6743591 21.44966 C 10.233855 20.68766 10.935769 20.0459 11.673151 19.45979 C 12.472944 18.784016 13.364172 18.221459 14.306905 17.767813 C 15.324878 17.270474 16.399265 16.897251 17.481723 16.566955 C 19.114686 16.073268 20.782577 15.696809 22.468637 15.436868 C 24.216398 15.165956 25.969225 14.929147 27.725904 14.723556 C 29.702235 14.474885 31.681828 14.253464 33.660156 14.021484 C 34.733556 13.948372 35.969116 13.989854 36.789676 14.781313 C 37.548855 15.484021 37.689503 16.583944 37.556459 17.560647 C 37.46486 18.575386 37.22143 19.572621 36.899398 20.537372 C 36.458841 21.803308 35.891686 23.020576 35.326172 24.234375 C 33.035705 28.867195 30.613286 33.432939 28.221059 38.013583 C 22.649326 48.614524 17.077593 59.215465 11.505859 69.816406 C 10.953915 70.720069 10.363287 71.605623 9.6445312 72.386719 C 8.9868922 72.943144 7.9283204 72.743635 7.3909936 72.116423 C 6.745059 71.293535 6.7354603 70.180822 6.5432732 69.193696 C 5.138373 60.226704 3.7669158 51.25451 2.375028 42.285491 C 2.1706501 41.184974 2.0879103 40.069708 1.9933764 38.955872 C 1.9120775 37.834013 1.761157 36.713532 1.7217155 35.590844 C 1.7894921 34.169462 1.848477 32.747031 1.984375 31.330078 C 2.2678424 29.993003 2.6466909 28.679329 3.0058594 27.361328 C 3.5996329 25.58379 4.2235808 23.81198 5.0130821 22.110431 C 5.5498962 20.883662 6.2406951 19.731685 6.9824219 18.619141 C 7.802767 17.597956 8.6741772 16.60207 9.7167969 15.800781 C 10.672033 15.080884 11.72633 14.506196 12.812724 14.011019 C 13.813843 13.562683 14.845186 13.183291 15.887685 12.84296 C 17.603979 12.292467 19.342461 11.806217 21.102756 11.41762 C 22.540106 11.115049 23.981702 10.831386 25.434802 10.614872 C 26.563814 10.452212 27.697331 10.313425 28.83509 10.227437 C 30.660984 10.066275 32.494538 10.014331 34.326525 9.9760489 C 35.019083 9.9720892 35.711797 9.9506461 36.404297 9.9570312 z M -3.109375 45.603516 C -2.1875 47.733073 -1.265625 49.86263 -0.34375 51.992188 C -1.2623698 49.294271 -2.1809896 46.596354 -3.0996094 43.898438 C -3.3860677 43.33724 -3.672526 42.776042 -3.9589844 42.214844 C -3.6757812 43.344401 -3.3925781 44.473958 -3.109375 45.603516 z M -3.2714844 57.359375 C -3.4329427 58.400391 -3.594401 59.441406 -3.7558594 60.482422 C -3.3183594 62.274089 -2.8808594 64.065755 -2.4433594 65.857422 C -1.8964844 66.169271 -1.3496094 66.48112 -0.80273438 66.792969 C -1.6165365 63.630208 -2.4303385 60.467448 -3.2441406 57.304688 L -3.2714844 57.359375 z M -4.0429688 62.361328 C -4.2858073 63.383464 -4.5286458 64.405599 -4.7714844 65.427734 C -4.2558594 65.53776 -3.7402344 65.647786 -3.2246094 65.757812 C -3.4817708 64.621094 -3.7389323 63.484375 -3.9960938 62.347656 L -4.0429688 62.361328 z M 16.720703 79.970703 C 14.994141 81.548828 13.267578 83.126953 11.541016 84.705078 C 13.290365 83.115234 15.039714 81.525391 16.789062 79.935547 L 16.720703 79.970703 z M 11.541016 84.705078 C 9.889974 85.804688 8.2389323 86.904297 6.5878906 88.003906 C 6.3496094 88.028646 6.1113281 88.053385 5.8730469 88.078125 C 6.2532552 88.436849 6.6334635 88.795573 7.0136719 89.154297 C 8.5227865 87.671224 10.031901 86.188151 11.541016 84.705078 z M 9.7734375 89.050781 C 9.3710938 89.380859 8.96875 89.710938 8.5664062 90.041016 C 8.8300781 90.475911 9.09375 90.910807 9.3574219 91.345703 C 9.5136719 90.572917 9.6699219 89.80013 9.8261719 89.027344 L 9.7734375 89.050781 z M 12.763672 92.125 C 12.089844 92.422526 11.416016 92.720052 10.742188 93.017578 C 11.446615 92.709635 12.151042 92.401693 12.855469 92.09375 L 12.763672 92.125 z "
     id="path131"
     inkscape:connector-curvature="0" />
</svg>
